<mxfile host="65bd71144e">
    <diagram id="zre_luqNfAEJBEauTFuf" name="Page-1">
        <mxGraphModel dx="1849" dy="1140" grid="1" gridSize="10" guides="1" tooltips="1" connect="1" arrows="1" fold="1" page="1" pageScale="1" pageWidth="1100" pageHeight="850" background="none" math="0" shadow="0">
            <root>
                <mxCell id="0"/>
                <mxCell id="1" parent="0"/>
                <mxCell id="2" value="" style="rounded=1;whiteSpace=wrap;html=1;sketch=1;curveFitting=1;jiggle=2;" vertex="1" parent="1">
                    <mxGeometry x="285" y="150" width="150" height="220" as="geometry"/>
                </mxCell>
                <mxCell id="3" value="Home P&lt;span style=&quot;color: rgba(0, 0, 0, 0); font-family: monospace; font-size: 0px; font-weight: 400; text-align: start;&quot;&gt;%3CmxGraphModel%3E%3Croot%3E%3CmxCell%20id%3D%220%22%2F%3E%3CmxCell%20id%3D%221%22%20parent%3D%220%22%2F%3E%3CmxCell%20id%3D%222%22%20value%3D%22%22%20style%3D%22rounded%3D1%3BwhiteSpace%3Dwrap%3Bhtml%3D1%3B%22%20vertex%3D%221%22%20parent%3D%221%22%3E%3CmxGeometry%20x%3D%2295%22%20y%3D%2280%22%20width%3D%22150%22%20height%3D%22220%22%20as%3D%22geometry%22%2F%3E%3C%2FmxCell%3E%3C%2Froot%3E%3C%2FmxGraphModel%3E&lt;/span&gt;age" style="text;html=1;strokeColor=none;fillColor=none;align=center;verticalAlign=middle;whiteSpace=wrap;rounded=0;fontStyle=1;fontSize=21;sketch=1;curveFitting=1;jiggle=2;" vertex="1" parent="1">
                    <mxGeometry x="300" y="245" width="120" height="30" as="geometry"/>
                </mxCell>
                <mxCell id="8" value="" style="endArrow=classic;startArrow=classic;html=1;fontSize=21;exitX=1;exitY=0.5;exitDx=0;exitDy=0;entryX=0;entryY=0.5;entryDx=0;entryDy=0;sketch=1;curveFitting=1;jiggle=2;" edge="1" parent="1" source="2" target="4">
                    <mxGeometry width="50" height="50" relative="1" as="geometry">
                        <mxPoint x="600" y="350" as="sourcePoint"/>
                        <mxPoint x="650" y="300" as="targetPoint"/>
                    </mxGeometry>
                </mxCell>
                <mxCell id="9" value="" style="group;sketch=1;curveFitting=1;jiggle=2;" vertex="1" connectable="0" parent="1">
                    <mxGeometry x="520" y="150" width="150" height="220" as="geometry"/>
                </mxCell>
                <mxCell id="4" value="" style="rounded=1;whiteSpace=wrap;html=1;sketch=1;curveFitting=1;jiggle=2;" vertex="1" parent="9">
                    <mxGeometry width="150" height="220" as="geometry"/>
                </mxCell>
                <mxCell id="5" value="Post Page" style="text;html=1;strokeColor=none;fillColor=none;align=center;verticalAlign=middle;whiteSpace=wrap;rounded=0;fontStyle=1;fontSize=21;sketch=1;curveFitting=1;jiggle=2;" vertex="1" parent="9">
                    <mxGeometry x="15" y="95" width="120" height="30" as="geometry"/>
                </mxCell>
                <mxCell id="10" value="" style="rounded=1;whiteSpace=wrap;html=1;sketch=1;curveFitting=1;jiggle=2;" vertex="1" parent="1">
                    <mxGeometry x="285" y="430" width="150" height="220" as="geometry"/>
                </mxCell>
                <mxCell id="12" value="About Page" style="text;html=1;strokeColor=none;fillColor=none;align=center;verticalAlign=middle;whiteSpace=wrap;rounded=0;fontStyle=1;fontSize=21;sketch=1;curveFitting=1;jiggle=2;" vertex="1" parent="1">
                    <mxGeometry x="300" y="525" width="120" height="30" as="geometry"/>
                </mxCell>
                <mxCell id="13" value="" style="endArrow=classic;startArrow=classic;html=1;fontSize=21;exitX=0.5;exitY=1;exitDx=0;exitDy=0;entryX=0.5;entryY=0;entryDx=0;entryDy=0;sketch=1;curveFitting=1;jiggle=2;" edge="1" parent="1" source="2" target="10">
                    <mxGeometry width="50" height="50" relative="1" as="geometry">
                        <mxPoint x="445" y="270" as="sourcePoint"/>
                        <mxPoint x="530" y="270" as="targetPoint"/>
                        <Array as="points"/>
                    </mxGeometry>
                </mxCell>
                <mxCell id="14" value="" style="endArrow=classic;startArrow=classic;html=1;fontSize=21;entryX=0.46;entryY=1.014;entryDx=0;entryDy=0;entryPerimeter=0;sketch=1;curveFitting=1;jiggle=2;" edge="1" parent="1" target="4">
                    <mxGeometry width="50" height="50" relative="1" as="geometry">
                        <mxPoint x="370" y="430" as="sourcePoint"/>
                        <mxPoint x="660" y="400" as="targetPoint"/>
                        <Array as="points">
                            <mxPoint x="370" y="420"/>
                            <mxPoint x="370" y="400"/>
                            <mxPoint x="590" y="400"/>
                            <mxPoint x="590" y="380"/>
                        </Array>
                    </mxGeometry>
                </mxCell>
                <mxCell id="16" value="" style="rounded=1;whiteSpace=wrap;html=1;sketch=1;curveFitting=1;jiggle=2;" vertex="1" parent="1">
                    <mxGeometry x="480" y="430" width="150" height="220" as="geometry"/>
                </mxCell>
                <mxCell id="17" value="Contact page" style="text;html=1;strokeColor=none;fillColor=none;align=center;verticalAlign=middle;whiteSpace=wrap;rounded=0;fontStyle=1;fontSize=21;sketch=1;curveFitting=1;jiggle=2;" vertex="1" parent="1">
                    <mxGeometry x="495" y="525" width="120" height="30" as="geometry"/>
                </mxCell>
                <mxCell id="18" value="" style="endArrow=classic;startArrow=classic;html=1;fontSize=21;entryX=0.569;entryY=1.008;entryDx=0;entryDy=0;entryPerimeter=0;exitX=0.477;exitY=-0.01;exitDx=0;exitDy=0;exitPerimeter=0;sketch=1;curveFitting=1;jiggle=2;" edge="1" parent="1" source="16" target="4">
                    <mxGeometry width="50" height="50" relative="1" as="geometry">
                        <mxPoint x="460" y="450" as="sourcePoint"/>
                        <mxPoint x="510" y="400" as="targetPoint"/>
                        <Array as="points">
                            <mxPoint x="552" y="410"/>
                            <mxPoint x="605" y="410"/>
                        </Array>
                    </mxGeometry>
                </mxCell>
                <mxCell id="20" value="" style="endArrow=classic;startArrow=classic;html=1;fontSize=21;entryX=0.5;entryY=1;entryDx=0;entryDy=0;exitX=0.393;exitY=1.009;exitDx=0;exitDy=0;exitPerimeter=0;sketch=1;curveFitting=1;jiggle=2;" edge="1" parent="1" source="2" target="16">
                    <mxGeometry width="50" height="50" relative="1" as="geometry">
                        <mxPoint x="550" y="630" as="sourcePoint"/>
                        <mxPoint x="600" y="580" as="targetPoint"/>
                        <Array as="points">
                            <mxPoint x="344" y="410"/>
                            <mxPoint x="270" y="410"/>
                            <mxPoint x="270" y="670"/>
                            <mxPoint x="555" y="670"/>
                        </Array>
                    </mxGeometry>
                </mxCell>
                <mxCell id="21" value="" style="rounded=1;whiteSpace=wrap;html=1;sketch=1;curveFitting=1;jiggle=2;" vertex="1" parent="1">
                    <mxGeometry x="680" y="430" width="150" height="220" as="geometry"/>
                </mxCell>
                <mxCell id="22" value="404 Page" style="text;html=1;strokeColor=none;fillColor=none;align=center;verticalAlign=middle;whiteSpace=wrap;rounded=0;fontStyle=1;fontSize=21;sketch=1;curveFitting=1;jiggle=2;" vertex="1" parent="1">
                    <mxGeometry x="695" y="525" width="120" height="30" as="geometry"/>
                </mxCell>
            </root>
        </mxGraphModel>
    </diagram>
</mxfile>